<?xml version="1.0" encoding="UTF-8" standalone="no"?>
<!DOCTYPE svg PUBLIC "-//W3C//DTD SVG 1.1//EN" "http://www.w3.org/Graphics/SVG/1.1/DTD/svg11.dtd">
<svg width="100%" height="100%" viewBox="0 0 461 260" version="1.1" xmlns="http://www.w3.org/2000/svg" xmlns:xlink="http://www.w3.org/1999/xlink" xml:space="preserve" xmlns:serif="http://www.serif.com/" style="fill-rule:evenodd;clip-rule:evenodd;stroke-linejoin:round;stroke-miterlimit:2;">
    <g>
        <g transform="matrix(0.121094,0,0,0.121094,97,141)">
            <g transform="matrix(1,0,0,1,-768,-512)">
                <g>
                    <path d="M799.543,104.413L1293.543,830.413L1235.477,903.801L759.046,721.523L282.604,904.77L224.439,831.439L718.439,104.439L799.543,104.413Z" style="fill:rgb(0,109,119);"/>
                    <path d="M579.809,395.709L942.419,401.558M758,199L964,492L759,723L554,493L758,199Z" style="fill:rgb(66,192,184);"/>
                </g>
            </g>
        </g>
        <path d="M150.232,151.753L161.943,117.422L172.853,117.422L184.893,151.753L178.027,151.753L167.821,121.984L170.22,123.018L164.341,123.018L166.787,121.984L156.91,151.753L150.232,151.753ZM158.415,142.63L160.532,136.986L174.452,136.986L176.522,142.63L158.415,142.63Z" style="fill:rgb(0,109,119);fill-rule:nonzero;"/>
        <path d="M189.455,151.753L189.455,126.216L194.628,126.216L194.628,137.033L194.487,137.033C194.487,133.365 195.271,130.59 196.839,128.709C198.406,126.828 200.711,125.887 203.752,125.887L204.693,125.887L204.693,131.578L202.905,131.578C200.711,131.578 199.01,132.165 197.803,133.341C196.596,134.517 195.992,136.218 195.992,138.444L195.992,151.753L189.455,151.753Z" style="fill:rgb(0,109,119);fill-rule:nonzero;"/>
        <path d="M226.938,151.753L218.378,139.808L214.569,139.808L225.433,126.216L232.252,126.216L222.235,138.773L222.376,135.481L234.321,151.753L226.938,151.753ZM209.066,151.753L209.066,117.422L215.603,117.422L215.603,151.753L209.066,151.753Z" style="fill:rgb(0,109,119);fill-rule:nonzero;"/>
        <path d="M248.665,152.647C246.471,152.647 244.55,152.271 242.904,151.518C241.258,150.766 239.894,149.755 238.813,148.485C237.731,147.215 236.916,145.796 236.367,144.229C235.818,142.661 235.544,141.062 235.544,139.432L235.544,138.538C235.544,136.845 235.818,135.207 236.367,133.623C236.916,132.04 237.731,130.629 238.813,129.392C239.894,128.152 241.235,127.165 242.834,126.428C244.433,125.691 246.282,125.323 248.383,125.323C251.142,125.323 253.454,125.926 255.32,127.133C257.186,128.34 258.588,129.924 259.528,131.883C260.47,133.843 260.94,135.951 260.94,138.209L260.94,140.56L238.319,140.56L238.319,136.563L256.846,136.563L254.826,138.538C254.826,136.908 254.591,135.512 254.121,134.352C253.65,133.192 252.937,132.299 251.981,131.672C251.025,131.045 249.825,130.731 248.383,130.731C246.941,130.731 245.718,131.06 244.715,131.719C243.712,132.377 242.951,133.326 242.434,134.564C241.917,135.802 241.658,137.284 241.658,139.008C241.658,140.607 241.909,142.026 242.41,143.264C242.912,144.503 243.68,145.475 244.715,146.18C245.749,146.886 247.066,147.238 248.665,147.238C250.264,147.238 251.565,146.917 252.569,146.274C253.572,145.632 254.215,144.84 254.497,143.899L260.517,143.899C260.14,145.655 259.419,147.191 258.353,148.508C257.286,149.825 255.931,150.844 254.285,151.565C252.639,152.286 250.766,152.647 248.665,152.647Z" style="fill:rgb(0,109,119);fill-rule:nonzero;"/>
        <path d="M275.66,152.553C272.149,152.553 269.398,151.808 267.407,150.319C265.416,148.83 264.373,146.768 264.279,144.135L270.158,144.135C270.252,145.012 270.738,145.812 271.616,146.533C272.494,147.254 273.873,147.615 275.754,147.615C277.322,147.615 278.568,147.333 279.493,146.768C280.418,146.204 280.881,145.436 280.881,144.464C280.881,143.617 280.528,142.943 279.822,142.441C279.117,141.94 277.918,141.611 276.225,141.454L273.967,141.219C271.114,140.905 268.919,140.09 267.383,138.773C265.847,137.456 265.079,135.701 265.079,133.506C265.079,131.75 265.518,130.276 266.395,129.086C267.273,127.894 268.488,126.992 270.04,126.381C271.592,125.769 273.372,125.464 275.378,125.464C278.513,125.464 281.053,126.154 282.997,127.533C284.941,128.913 285.96,130.935 286.054,133.6L280.175,133.6C280.112,132.722 279.674,131.97 278.858,131.342C278.043,130.715 276.867,130.402 275.331,130.402C273.952,130.402 272.886,130.668 272.133,131.202C271.381,131.734 271.004,132.424 271.004,133.271C271.004,134.086 271.31,134.713 271.921,135.152C272.533,135.591 273.528,135.889 274.908,136.045L277.165,136.281C280.175,136.594 282.535,137.425 284.243,138.773C285.952,140.121 286.806,141.94 286.806,144.229C286.806,145.922 286.344,147.387 285.419,148.626C284.494,149.864 283.201,150.828 281.539,151.518C279.877,152.208 277.918,152.553 275.66,152.553Z" style="fill:rgb(0,109,119);fill-rule:nonzero;"/>
        <path d="M303.314,152.083C300.962,152.083 299.026,151.777 297.506,151.165C295.985,150.554 294.848,149.519 294.096,148.061C293.344,146.604 292.967,144.636 292.967,142.159L293.014,119.021L299.128,119.021L299.081,142.583C299.081,143.837 299.418,144.801 300.092,145.475C300.766,146.149 301.73,146.486 302.985,146.486L306.982,146.486L306.982,152.083L303.314,152.083ZM288.923,131.013L288.923,126.216L306.982,126.216L306.982,131.013L288.923,131.013Z" style="fill:rgb(0,109,119);fill-rule:nonzero;"/>
        <path d="M312.485,151.753L312.485,126.216L317.658,126.216L317.658,137.033L317.517,137.033C317.517,133.365 318.301,130.59 319.868,128.709C321.436,126.828 323.74,125.887 326.782,125.887L327.722,125.887L327.722,131.578L325.935,131.578C323.74,131.578 322.039,132.165 320.832,133.341C319.625,134.517 319.022,136.218 319.022,138.444L319.022,151.753L312.485,151.753Z" style="fill:rgb(0,109,119);fill-rule:nonzero;"/>
        <path d="M347.428,151.753L347.428,144.182L346.346,144.182L346.346,135.763C346.346,134.29 345.985,133.192 345.264,132.471C344.543,131.75 343.43,131.39 341.925,131.39C341.141,131.39 340.201,131.405 339.103,131.437C338.006,131.468 336.901,131.507 335.788,131.554C334.675,131.601 333.679,131.657 332.801,131.719L332.801,126.169C333.523,126.106 334.338,126.044 335.247,125.981C336.156,125.918 337.089,125.879 338.045,125.863C339.002,125.848 339.903,125.84 340.749,125.84C343.383,125.84 345.57,126.185 347.31,126.875C349.05,127.564 350.367,128.646 351.261,130.12C352.154,131.593 352.601,133.521 352.601,135.904L352.601,151.753L347.428,151.753ZM339.197,152.412C337.348,152.412 335.725,152.083 334.33,151.424C332.935,150.766 331.853,149.825 331.085,148.602C330.317,147.38 329.933,145.906 329.933,144.182C329.933,142.3 330.395,140.764 331.32,139.573C332.245,138.381 333.546,137.488 335.223,136.892C336.901,136.296 338.868,135.998 341.126,135.998L347.051,135.998L347.051,139.902L341.032,139.902C339.527,139.902 338.374,140.27 337.575,141.007C336.775,141.744 336.376,142.692 336.376,143.852C336.376,145.012 336.775,145.953 337.575,146.674C338.374,147.395 339.527,147.756 341.032,147.756C341.941,147.756 342.78,147.591 343.548,147.262C344.316,146.933 344.959,146.368 345.476,145.569C345.993,144.769 346.283,143.68 346.346,142.3L347.945,144.135C347.788,145.922 347.357,147.427 346.652,148.649C345.946,149.872 344.974,150.805 343.736,151.448C342.497,152.09 340.985,152.412 339.197,152.412Z" style="fill:rgb(0,109,119);fill-rule:nonzero;"/>
        <path d="M370.707,152.083C368.356,152.083 366.42,151.777 364.899,151.165C363.379,150.554 362.242,149.519 361.49,148.061C360.737,146.604 360.361,144.636 360.361,142.159L360.408,119.021L366.522,119.021L366.475,142.583C366.475,143.837 366.812,144.801 367.486,145.475C368.16,146.149 369.124,146.486 370.378,146.486L374.376,146.486L374.376,152.083L370.707,152.083ZM356.316,131.013L356.316,126.216L374.376,126.216L374.376,131.013L356.316,131.013Z" style="fill:rgb(0,109,119);fill-rule:nonzero;"/>
        <path d="M392.012,152.647C389.754,152.647 387.763,152.286 386.039,151.565C384.315,150.844 382.857,149.864 381.665,148.626C380.474,147.387 379.572,145.984 378.961,144.417C378.35,142.849 378.044,141.219 378.044,139.526L378.044,138.538C378.044,136.782 378.365,135.113 379.008,133.529C379.651,131.946 380.576,130.535 381.783,129.297C382.99,128.058 384.456,127.086 386.18,126.381C387.905,125.675 389.848,125.323 392.012,125.323C394.175,125.323 396.119,125.675 397.843,126.381C399.568,127.086 401.034,128.058 402.241,129.297C403.448,130.535 404.365,131.946 404.992,133.529C405.619,135.113 405.933,136.782 405.933,138.538L405.933,139.526C405.933,141.219 405.627,142.849 405.016,144.417C404.404,145.984 403.503,147.387 402.311,148.626C401.12,149.864 399.662,150.844 397.938,151.565C396.213,152.286 394.238,152.647 392.012,152.647ZM392.012,147.05C393.611,147.05 394.959,146.698 396.056,145.992C397.154,145.287 397.985,144.33 398.549,143.123C399.113,141.916 399.395,140.545 399.395,139.008C399.395,137.441 399.105,136.053 398.525,134.846C397.945,133.639 397.099,132.683 395.986,131.978C394.873,131.272 393.548,130.92 392.012,130.92C390.476,130.92 389.151,131.272 388.038,131.978C386.925,132.683 386.07,133.639 385.475,134.846C384.879,136.053 384.581,137.441 384.581,139.008C384.581,140.545 384.871,141.916 385.451,143.123C386.031,144.33 386.87,145.287 387.967,145.992C389.065,146.698 390.413,147.05 392.012,147.05Z" style="fill:rgb(0,109,119);fill-rule:nonzero;"/>
        <path d="M411.67,151.753L411.67,126.216L416.843,126.216L416.843,137.033L416.702,137.033C416.702,133.365 417.486,130.59 419.054,128.709C420.622,126.828 422.926,125.887 425.967,125.887L426.908,125.887L426.908,131.578L425.121,131.578C422.926,131.578 421.225,132.165 420.018,133.341C418.811,134.517 418.207,136.218 418.207,138.444L418.207,151.753L411.67,151.753Z" style="fill:rgb(0,109,119);fill-rule:nonzero;"/>
    </g>
</svg>
